<svg width="20" height="20" viewBox="0 0 20 20" fill="none" xmlns="http://www.w3.org/2000/svg">
<path opacity="0.5" fill-rule="evenodd" clip-rule="evenodd" d="M2.5 11.875C2.84518 11.875 3.125 12.1548 3.125 12.5C3.125 13.6962 3.12633 14.5304 3.21096 15.1599C3.29317 15.7714 3.44354 16.0952 3.67418 16.3258C3.90481 16.5565 4.22863 16.7068 4.8401 16.7891C5.46956 16.8737 6.30383 16.875 7.5 16.875H12.5C13.6962 16.875 14.5304 16.8737 15.1599 16.7891C15.7714 16.7068 16.0952 16.5565 16.3258 16.3258C16.5565 16.0952 16.7068 15.7714 16.7891 15.1599C16.8737 14.5304 16.875 13.6962 16.875 12.5C16.875 12.1548 17.1548 11.875 17.5 11.875C17.8452 11.875 18.125 12.1548 18.125 12.5V12.5458C18.125 13.6854 18.125 14.604 18.0279 15.3265C17.9271 16.0766 17.7113 16.7081 17.2097 17.2097C16.7081 17.7113 16.0766 17.9271 15.3265 18.0279C14.604 18.125 13.6854 18.125 12.5458 18.125H7.45428C6.31462 18.125 5.39602 18.125 4.67354 18.0279C3.92345 17.9271 3.29189 17.7113 2.79029 17.2097C2.28869 16.7081 2.07295 16.0766 1.9721 15.3265C1.87497 14.604 1.87498 13.6854 1.875 12.5458C1.875 12.5305 1.875 12.5152 1.875 12.5C1.875 12.1548 2.15483 11.875 2.5 11.875Z" fill="#2A3045"/>
<path fill-rule="evenodd" clip-rule="evenodd" d="M10.0001 13.9583C10.1756 13.9583 10.3429 13.8846 10.4613 13.7551L13.7947 10.1092C14.0276 9.8545 14.0099 9.45917 13.7552 9.22625C13.5004 8.99333 13.1051 9.011 12.8722 9.26575L10.6251 11.7235V2.5C10.6251 2.15482 10.3452 1.875 10.0001 1.875C9.65492 1.875 9.37508 2.15482 9.37508 2.5V11.7235L7.12802 9.26575C6.89511 9.011 6.49977 8.99333 6.24502 9.22625C5.99027 9.45917 5.97257 9.8545 6.20548 10.1092L9.53883 13.7551C9.65725 13.8846 9.82458 13.9583 10.0001 13.9583Z" fill="#2A3045"/>
</svg>
