<svg width="17" height="17" viewBox="0 0 17 17" fill="none" xmlns="http://www.w3.org/2000/svg">
<g clip-path="url(#clip0_257_10)">
<path d="M5.10015 0C4.16126 0 3.40015 0.761116 3.40015 1.7V9.63333C3.40015 10.5722 4.16126 11.3333 5.10015 11.3333H15.3001C16.239 11.3333 17.0001 10.5722 17.0001 9.63333V3.96667C17.0001 3.02778 16.239 2.26667 15.3001 2.26667H11.0015L8.73487 0H5.10015Z" fill="#30364A"/>
<path d="M13.6 12.4667H5.1C3.5352 12.4667 2.26667 11.1981 2.26667 9.63333V5.66666H1.7C0.761116 5.66666 0 6.42778 0 7.36666V15.3C0 16.2389 0.761116 17 1.7 17H11.9C12.8389 17 13.6 16.2389 13.6 15.3V12.4667Z" fill="#30364A"/>
</g>
<defs>
<clipPath id="clip0_257_10">
<rect width="17" height="17" fill="white"/>
</clipPath>
</defs>
</svg>
